<?xml version="1.0" standalone="no"?>
<!DOCTYPE svg PUBLIC "-//W3C//DTD SVG 20010904//EN"
 "http://www.w3.org/TR/2001/REC-SVG-20010904/DTD/svg10.dtd">
<svg version="1.0" xmlns="http://www.w3.org/2000/svg"
 width="55.000000pt" height="54.000000pt" viewBox="0 0 55.000000 54.000000"
 preserveAspectRatio="xMidYMid meet">

<g transform="translate(0.000000,54.000000) scale(0.100000,-0.100000)"
fill="#000000" stroke="none">
<path d="M201 514 c-28 -35 -26 -69 4 -99 51 -51 135 -18 135 53 0 45 -30 72
-79 72 -31 0 -44 -6 -60 -26z"/>
<path d="M415 379 c-51 -29 -59 -76 -20 -114 30 -30 64 -32 99 -4 64 50 -8
157 -79 118z"/>
<path d="M233 210 c-79 -32 -57 -150 28 -150 82 0 110 108 38 145 -32 17 -35
17 -66 5z"/>
<path d="M420 213 c-56 -21 -70 -96 -24 -132 50 -40 114 -18 130 44 8 31 -17
72 -52 85 -28 11 -32 11 -54 3z"/>
<path d="M25 185 c-40 -39 -31 -89 18 -110 79 -33 144 56 84 113 -31 29 -72
28 -102 -3z"/>
</g>
</svg>
